<!--?xml version="1.0" standalone="no"?-->
<svg id="sw-js-blob-svg" viewBox="0 0 100 100" xmlns="http://www.w3.org/2000/svg">
    <defs>
        <linearGradient id="sw-gradient" x1="0" x2="1" y1="1" y2="0">
            <stop id="stop1" stop-color="rgba(248, 117, 55, 0.54)" offset="0%"></stop>
            <stop id="stop2" stop-color="rgba(31, 91.124, 251, 0.17)" offset="100%"></stop>
        </linearGradient>
    </defs>
    <path fill="url(#sw-gradient)" d="M24,-29.4C31.3,-22.4,37.7,-15.1,39.8,-6.5C41.9,2.1,39.8,11.9,34.7,19.4C29.6,26.9,21.5,32,13.1,34.4C4.6,36.9,-4.4,36.7,-12.2,33.7C-20.1,30.8,-26.8,25.1,-32.2,17.7C-37.5,10.3,-41.3,1.2,-40.2,-7.4C-39.1,-16,-33,-24.1,-25.5,-31C-18,-37.9,-9,-43.7,-0.3,-43.3C8.3,-42.9,16.6,-36.3,24,-29.4Z" width="100%" height="100%" transform="translate(50 50)" stroke-width="0" style="transition: all 0.3s ease 0s;" stroke="url(#sw-gradient)"></path>
</svg>